<svg xmlns:xlink="http://www.w3.org/1999/xlink" class="icon" xmlns="http://www.w3.org/2000/svg" viewBox="0 0 16.227 11.039" width="16.227"  height="11.039" ><g transform="translate(0 -38.529)" fill="#313131"><path d="M41.35,68.654,36.1,73.285l-5.256-4.63a.5.5,0,1,0-.667.758l5.59,4.925a.5.5,0,0,0,.668,0l5.588-4.925a.5.5,0,1,0-.668-.757Z" transform="translate(-27.981 -27.98)" fill="#313131"></path><path d="M14.712,38.529H1.515A1.516,1.516,0,0,0,0,40.044v8.01a1.516,1.516,0,0,0,1.515,1.515h13.2a1.516,1.516,0,0,0,1.515-1.515v-8.01A1.516,1.516,0,0,0,14.712,38.529Zm.5,9.525a.505.505,0,0,1-.5.5H1.515a.505.505,0,0,1-.5-.5v-8.01a.505.505,0,0,1,.5-.5h13.2a.505.505,0,0,1,.5.5Z" transform="translate(0 0)" fill="#313131"></path></g></svg>