<svg xmlns:xlink="http://www.w3.org/1999/xlink" class="icon" xmlns="http://www.w3.org/2000/svg" viewBox="0 0 16.258 16.725" width="16.258"  height="16.725" ><g transform="translate(-2.95)" fill="#313131"><path d="M112.4,2.191A7.431,7.431,0,0,0,107.11,0a.593.593,0,1,0,0,1.185,6.295,6.295,0,0,1,6.3,6.3.593.593,0,0,0,1.185,0A7.431,7.431,0,0,0,112.4,2.191Z" transform="translate(-95.383)" fill="#313131"></path><path d="M109.961,47.615a.593.593,0,0,0,1.185,0,4.042,4.042,0,0,0-4.037-4.037h0a.593.593,0,0,0,0,1.185A2.855,2.855,0,0,1,109.961,47.615Z" transform="translate(-95.383 -40.134)" fill="#313131"></path><path d="M13.267,39.823a1.789,1.789,0,0,0-1.584.948.593.593,0,1,0,.978.669c.261-.381.379-.441.539-.434a7.635,7.635,0,0,1,2.736,2,.613.613,0,0,1-.006.433,2.046,2.046,0,0,1-1.016,1.279,1.9,1.9,0,0,1-1.523-.051,16.752,16.752,0,0,1-5.5-3.578l0,0A16.749,16.749,0,0,1,4.323,35.6a1.9,1.9,0,0,1-.052-1.524A2.045,2.045,0,0,1,5.55,33.064a.612.612,0,0,1,.432-.006,7.649,7.649,0,0,1,2,2.731c.009.166-.052.284-.433.545a.593.593,0,0,0,.669.979,1.788,1.788,0,0,0,.948-1.586A7.256,7.256,0,0,0,6.4,31.947a1.792,1.792,0,0,0-1.224-.007,3.19,3.19,0,0,0-1.979,1.645,3.051,3.051,0,0,0,.031,2.465,17.928,17.928,0,0,0,3.832,5.881l.012.012a17.933,17.933,0,0,0,5.874,3.826,3.517,3.517,0,0,0,1.323.276,2.717,2.717,0,0,0,1.141-.245,3.19,3.19,0,0,0,1.645-1.979,1.793,1.793,0,0,0-.006-1.221A7.254,7.254,0,0,0,13.267,39.823Z" transform="translate(0 -29.32)" fill="#313131"></path></g></svg>