<svg xmlns:xlink="http://www.w3.org/1999/xlink" class="icon" xmlns="http://www.w3.org/2000/svg" viewBox="0 0 37 37" width="38"  height="38" ><g transform="translate(-0.478 3.685)" fill="#FFBC00"><g class="a" transform="translate(0.478 -3.685)" fill="#FFBC00"><path class="c" d="M18.5,0A18.6,18.6,0,0,1,34.819,9.779,18.162,18.162,0,0,1,37,18.5,18.5,18.5,0,1,1,18.5,0Z" fill-opacity="0" fill="#000000"></path><path class="d" d="M 18.5 2 C 14.09268951416016 2 9.949180603027344 3.716300964355469 6.832740783691406 6.832740783691406 C 3.716300964355469 9.949180603027344 2 14.09268951416016 2 18.5 C 2 22.90731048583984 3.716300964355469 27.05081939697266 6.832740783691406 30.16725921630859 C 9.949180603027344 33.28369903564453 14.09268951416016 35 18.5 35 C 22.90731048583984 35 27.05081939697266 33.28369903564453 30.16725921630859 30.16725921630859 C 33.28369903564453 27.05081939697266 35 22.90731048583984 35 18.5 C 35 15.74249076843262 34.31491851806641 12.99007034301758 33.07001113891602 10.74802017211914 C 31.60560989379883 8.10453987121582 29.50716972351074 5.900890350341797 27.00154113769531 4.375289916992188 C 24.44939994812012 2.821361541748047 21.50960922241211 2 18.5 2 M 18.5 0 C 25.46812057495117 0 31.53646087646484 3.852439880371094 34.81949996948242 9.778860092163086 C 36.16239166259766 12.19734954833984 37 15.2508602142334 37 18.5 C 37 28.71726989746094 28.71726989746094 37 18.5 37 C 8.282730102539063 37 0 28.71726989746094 0 18.5 C 0 8.282730102539063 8.282730102539063 0 18.5 0 Z" fill="#FFBC00"></path></g><path class="b" d="M.877,21.449A.964.964,0,0,1,0,20.4a16.026,16.026,0,0,1,1.921-6.771,6.676,6.676,0,0,1,6.034-3.457,6.674,6.674,0,0,1,6.034,3.457A15.876,15.876,0,0,1,15.915,20.4a.96.96,0,0,1-.872,1.041.337.337,0,0,1-.089.008A.964.964,0,0,1,14,20.576c-.52-5.634-2.553-8.492-6.042-8.492s-5.522,2.858-6.042,8.492a.961.961,0,0,1-.953.877C.935,21.453.906,21.452.877,21.449ZM3.55,4.41A4.41,4.41,0,1,1,7.959,8.819,4.413,4.413,0,0,1,3.55,4.41Zm1.92,0A2.489,2.489,0,1,0,7.959,1.921,2.5,2.5,0,0,0,5.47,4.41Z" transform="translate(11.308 4.191)" fill="#FFBC00"></path></g></svg>