<svg xmlns:xlink="http://www.w3.org/1999/xlink" class="icon" xmlns="http://www.w3.org/2000/svg" viewBox="0 0 16.371 16.372" width="16.371"  height="16.372" ><path d="M3.96,15.2a8.126,8.126,0,0,0,4.2,1.162,8.228,8.228,0,0,0,8.215-8.183,8.183,8.183,0,1,0-15.2,4.229L0,16.371ZM.965,8.183a7.189,7.189,0,1,1,3.323,6.1L4.1,14.161l-2.686.792.792-2.686-.118-.184A7.223,7.223,0,0,1,.965,8.183Zm0,0" fill="#313131"></path><path d="M121.239,96.377a7.229,7.229,0,0,0,5.8,5.8c.953.181,2.35.209,3.033-.474l.381-.381a1.018,1.018,0,0,0,0-1.44l-1.523-1.523a1.018,1.018,0,0,0-1.44,0l-.381.381a.677.677,0,0,1-.906,0l-1.519-1.583-.007-.007a.6.6,0,0,1,0-.845l.381-.381a1.017,1.017,0,0,0,0-1.44l-1.523-1.523a1.019,1.019,0,0,0-1.44,0l-.381.381h0A3.55,3.55,0,0,0,121.239,96.377Zm1.152-2.355c.4-.391.378-.4.422-.4a.059.059,0,0,1,.042.017c1.6,1.613,1.54,1.519,1.54,1.565a.058.058,0,0,1-.017.042l-.381.381a1.556,1.556,0,0,0,0,2.2l1.52,1.584.007.007a1.636,1.636,0,0,0,2.265,0l.381-.381a.059.059,0,0,1,.083,0c1.6,1.613,1.54,1.518,1.54,1.565a.057.057,0,0,1-.017.042l-.381.381a2.837,2.837,0,0,1-2.176.211,6.27,6.27,0,0,1-5.035-5.035A2.836,2.836,0,0,1,122.392,94.022Zm0,0" transform="translate(-117.254 -89.702)" fill="#313131"></path></svg>